<svg width="31" height="30" viewBox="0 0 31 30" fill="none" xmlns="http://www.w3.org/2000/svg">
<path d="M15.6666 0C7.19459 0 0.333252 6.86133 0.333252 15.3333C0.333252 22.1187 4.72259 27.8493 10.8173 29.88C11.5839 30.0147 11.8706 29.5547 11.8706 29.152C11.8706 28.788 11.8519 27.5813 11.8519 26.296C7.99992 27.0053 7.00392 25.3573 6.69725 24.496C6.52392 24.0547 5.77725 22.6933 5.12392 22.3293C4.58792 22.0413 3.82125 21.332 5.10525 21.3133C6.31325 21.2947 7.17592 22.4253 7.46392 22.8853C8.84392 25.2053 11.0479 24.552 11.9293 24.1493C12.0626 23.1533 12.4653 22.4827 12.9066 22.0987C9.49459 21.716 5.93059 20.3933 5.93059 14.528C5.93059 12.8613 6.52392 11.4813 7.50125 10.408C7.34792 10.024 6.81192 8.452 7.65459 6.344C7.65459 6.344 8.93859 5.94133 11.8719 7.916C13.0986 7.57067 14.4013 7.39867 15.7053 7.39867C17.0079 7.39867 18.3119 7.572 19.5386 7.916C22.4719 5.92267 23.7546 6.344 23.7546 6.344C24.5986 8.452 24.0613 10.024 23.9079 10.408C24.8853 11.4813 25.4799 12.8413 25.4799 14.528C25.4799 20.412 21.8959 21.7147 18.4839 22.0987C19.0399 22.5787 19.5186 23.4987 19.5186 24.936C19.5186 26.9867 19.4999 28.6347 19.4999 29.152C19.4999 29.5547 19.7879 30.0347 20.5533 29.8813C26.6119 27.8493 30.9999 22.0987 30.9999 15.3333C30.9999 6.86133 24.1386 0 15.6666 0Z" fill="white"/>
</svg>
